# xmcd
#
# Track frame offsets: 
#        150
#        10089
#        21535
#        34027
#        47205
#        59061
#        74609
#        87353
#        101504
#        111598
#        122530
#        132990
#        151660
#        162154
#        173746
#        184272
#
# Disc length: 2580 seconds
#
# Revision: 2
# Processed by: cddbd v1.5.2PL0 Copyright (c) Steve Scherf et al.
# Submitted via: ExactAudioCopyFreeDBPlugin 1.0
#
DISCID=dd0a1210
DTITLE=Varios - Country and Western Vol.2 [CD 2)
DYEAR=2003
DGENRE=Country
TTITLE0=Jonny Hill - Oh Susanna
TTITLE1=Tammy Wynette - D.I.V.O.R.C.E. (Live)
TTITLE2=Waylon Jennings - I´m a rambiln´man
TTITLE3=Kathy Matthea - Ball and chain (Live)
TTITLE4=The Oakridge Boys - Time has made a change in me
TTITLE5=Gene Parsons - Way out there
TTITLE6=Jonny Hill - Oh my darling, Clementine
TTITLE7=Dolly Parton - Mule skinner blues
TTITLE8=Ray Griff - After the laughter
TTITLE9=Guy Mitchell - Singin´the blues
TTITLE10=Barry sadler - Ballad of the green berets
TTITLE11=Blackwater Band - Lighthouse bar
TTITLE12=Hank Snow - Spanish fire ball
TTITLE13=Jonny Hill - Tom Dooley
TTITLE14=Carl Perkins - What am I living for
TTITLE15=Floyd Cramer - Java
EXTD=
EXTT0=
EXTT1=
EXTT2=
EXTT3=
EXTT4=
EXTT5=
EXTT6=
EXTT7=(Blue yodel no. 8)
EXTT8=
EXTT9=
EXTT10=
EXTT11=
EXTT12=
EXTT13=
EXTT14=
EXTT15=
PLAYORDER=
